<svg width="32" height="32" viewBox="0 0 32 32" fill="none" xmlns="http://www.w3.org/2000/svg">
<g clip-path="url(#clip0_3884_3656)">
<path fill-rule="evenodd" clip-rule="evenodd" d="M24.1186 5.38324C23.5185 5.33421 22.7421 5.33317 21.6 5.33317H20C19.2636 5.33317 18.6667 4.73622 18.6667 3.99984C18.6667 3.26346 19.2636 2.66651 20 2.66651L21.6551 2.6665C22.7283 2.66649 23.6142 2.66647 24.3358 2.72543C25.0852 2.78666 25.7742 2.91808 26.4213 3.2478C27.4248 3.75913 28.2407 4.57502 28.752 5.57856C29.0817 6.22567 29.2132 6.91461 29.2744 7.66407C29.3334 8.38566 29.3333 9.27146 29.3333 10.3447V21.6549C29.3333 22.7282 29.3334 23.614 29.2744 24.3356C29.2132 25.0851 29.0817 25.774 28.752 26.4211C28.2407 27.4247 27.4248 28.2405 26.4213 28.7519C25.7742 29.0816 25.0852 29.213 24.3358 29.2742C23.6142 29.3332 22.7284 29.3332 21.6551 29.3332H20C19.2636 29.3332 18.6667 28.7362 18.6667 27.9998C18.6667 27.2635 19.2636 26.6665 20 26.6665H21.6C22.7421 26.6665 23.5185 26.6655 24.1186 26.6164C24.7032 26.5687 25.0021 26.4821 25.2106 26.3759C25.7124 26.1202 26.1203 25.7122 26.376 25.2105C26.4823 25.0019 26.5688 24.703 26.6166 24.1185C26.6656 23.5183 26.6667 22.7419 26.6667 21.5998V10.3998C26.6667 9.25773 26.6656 8.48134 26.6166 7.88122C26.5688 7.29667 26.4823 6.99773 26.376 6.7892C26.1203 6.28743 25.7124 5.87948 25.2106 5.62382C25.0021 5.51757 24.7032 5.431 24.1186 5.38324ZM12.3905 23.6093C11.8698 23.0886 11.8698 22.2444 12.3905 21.7237L16.781 17.3332H3.99999C3.26361 17.3332 2.66666 16.7362 2.66666 15.9998C2.66666 15.2635 3.26361 14.6665 3.99999 14.6665H16.781L12.3905 10.276C11.8698 9.75528 11.8698 8.91106 12.3905 8.39036C12.9112 7.86966 13.7554 7.86966 14.2761 8.39036L20.9428 15.057C21.4635 15.5777 21.4635 16.4219 20.9428 16.9426L14.2761 23.6093C13.7554 24.13 12.9112 24.13 12.3905 23.6093Z" fill="#095880"/>
</g>
<defs>
<clipPath id="clip0_3884_3656">
<rect width="32" height="32" fill="white"/>
</clipPath>
</defs>
</svg>
