<svg width="56" height="56" viewBox="0 0 56 56" fill="none" xmlns="http://www.w3.org/2000/svg">
<rect width="56" height="56" rx="28" fill="white"/>
<path d="M38 28.0607C38 22.504 33.5233 18 28 18C22.4767 18 18 22.504 18 28.0607C18 33.0833 21.656 37.2453 26.4373 38V30.9693H23.8987V28.06H26.4373V25.844C26.4373 23.3227 27.93 21.9293 30.2147 21.9293C31.308 21.9293 32.4533 22.126 32.4533 22.126V24.602H31.1913C29.9493 24.602 29.5627 25.378 29.5627 26.174V28.0607H32.336L31.8927 30.9687H29.5627V38C34.344 37.2453 38 33.0833 38 28.0607Z" fill="#D9D9D9"/>
</svg>
