<svg width="56" height="56" viewBox="0 0 56 56" fill="none" xmlns="http://www.w3.org/2000/svg">
<rect width="56" height="56" rx="28" fill="white"/>
<path d="M38 34C38 35.1 37.1 36 36 36H20C18.9 36 18 35.1 18 34V22.915L27.5703 29.6143C27.8285 29.7948 28.1715 29.7948 28.4297 29.6143L38 22.915V34ZM36 20C36.8404 20 37.5617 20.5262 37.8564 21.2646C37.7566 21.2841 37.659 21.3237 37.5703 21.3857L28 28.085L18.4297 21.3857C18.3407 21.3235 18.2427 21.284 18.1426 21.2646C18.4373 20.526 19.1595 20 20 20H36Z" fill="#D9D9D9"/>
</svg>
