<svg width="56" height="56" viewBox="0 0 56 56" fill="none" xmlns="http://www.w3.org/2000/svg">
<rect width="56" height="56" rx="28" fill="white"/>
<path d="M28 18.5C32.4281 18.5 34.6423 18.4999 36.0381 19.8506C36.0757 19.887 36.113 19.9243 36.1494 19.9619C37.5001 21.3577 37.5 23.5719 37.5 28C37.5 32.4281 37.5001 34.6423 36.1494 36.0381C36.113 36.0757 36.0757 36.113 36.0381 36.1494C34.6423 37.5001 32.4281 37.5 28 37.5C23.5719 37.5 21.3577 37.5001 19.9619 36.1494C19.9243 36.113 19.887 36.0757 19.8506 36.0381C18.4999 34.6423 18.5 32.4281 18.5 28C18.5 23.5719 18.4999 21.3577 19.8506 19.9619C19.887 19.9243 19.9243 19.887 19.9619 19.8506C21.3577 18.4999 23.5719 18.5 28 18.5ZM27.999 21.1602C26.1418 21.1602 25.9092 21.1679 25.1797 21.2012C24.4515 21.2345 23.9536 21.3504 23.5186 21.5195C23.0627 21.691 22.6495 21.9603 22.3076 22.3086C21.9598 22.6502 21.6904 23.0633 21.5186 23.5195C21.3503 23.9545 21.2335 24.4525 21.2002 25.1807C21.1674 25.9097 21.1592 26.1419 21.1592 28C21.1592 29.8582 21.1669 30.0907 21.2002 30.8203C21.2335 31.5482 21.3495 32.0456 21.5186 32.4805C21.69 32.9365 21.9592 33.3504 22.3076 33.6924C22.6492 34.0402 23.0624 34.3096 23.5186 34.4814C23.9536 34.6502 24.4515 34.7655 25.1797 34.7988C25.9092 34.8321 26.1418 34.8398 27.999 34.8398C29.8567 34.8398 30.0898 34.8321 30.8193 34.7988C31.5476 34.7655 32.0454 34.6496 32.4805 34.4805C32.9363 34.309 33.3495 34.0397 33.6914 33.6914C34.0392 33.3498 34.3086 32.9367 34.4805 32.4805C34.6491 32.0455 34.7655 31.5483 34.7988 30.8203C34.8321 30.0907 34.8398 29.8577 34.8398 28C34.8398 26.1423 34.8321 25.9093 34.7988 25.1797C34.7655 24.4518 34.6496 23.9544 34.4805 23.5195C34.3087 23.0631 34.0393 22.6493 33.6914 22.3076C33.3498 21.9598 32.9366 21.6904 32.4805 21.5186C32.0455 21.3503 31.5474 21.2345 30.8193 21.2012C30.0902 21.1683 29.8572 21.1602 27.999 21.1602ZM27.999 22.3926C29.8252 22.3926 30.0424 22.3998 30.7637 22.4326C31.4303 22.4632 31.793 22.5736 32.0342 22.668C32.3531 22.7915 32.5811 22.94 32.8203 23.1787C33.0597 23.4181 33.2075 23.6467 33.3311 23.9658C33.425 24.207 33.5368 24.5689 33.5674 25.2354C33.6002 25.9567 33.6074 26.1737 33.6074 28C33.6074 29.8263 33.6002 30.0433 33.5674 30.7646C33.5368 31.4311 33.4254 31.793 33.3311 32.0342C33.2216 32.3313 33.0473 32.6006 32.8203 32.8213C32.5998 33.0482 32.3311 33.2226 32.0342 33.332C31.793 33.426 31.4303 33.5368 30.7637 33.5674C30.0423 33.6002 29.8257 33.6074 27.999 33.6074C26.1728 33.6074 25.9566 33.6002 25.2354 33.5674C24.5687 33.5368 24.2061 33.4264 23.9648 33.332C23.668 33.2226 23.3993 33.0481 23.1787 32.8213C22.9517 32.6006 22.7775 32.3312 22.668 32.0342C22.574 31.793 22.4622 31.4311 22.4316 30.7646C22.3988 30.0433 22.3916 29.8263 22.3916 28C22.3916 26.1737 22.3988 25.9567 22.4316 25.2354C22.4622 24.5689 22.5736 24.207 22.668 23.9658C22.7915 23.6467 22.9398 23.4181 23.1787 23.1787C23.3992 22.9519 23.668 22.7774 23.9648 22.668C24.2061 22.574 24.5687 22.4632 25.2354 22.4326C25.9566 22.3998 26.1733 22.3926 27.999 22.3926ZM28 24.4844C27.0678 24.4844 26.1739 24.8546 25.5146 25.5137C24.8553 26.173 24.4844 27.0676 24.4844 28C24.4844 28.9324 24.8553 29.827 25.5146 30.4863C26.1739 31.1454 27.0678 31.5156 28 31.5156C28.9324 31.5156 29.827 31.1456 30.4863 30.4863C31.1457 29.827 31.5156 28.9324 31.5156 28C31.5156 27.0676 31.1456 26.173 30.4863 25.5137C29.827 24.8544 28.9324 24.4844 28 24.4844ZM28 25.7178C28.6052 25.7178 29.1863 25.9578 29.6143 26.3857C30.0423 26.8137 30.2822 27.3947 30.2822 28C30.2822 28.6053 30.0423 29.1862 29.6143 29.6143C29.1863 30.0422 28.6052 30.2822 28 30.2822C27.7004 30.2822 27.4038 30.2231 27.127 30.1084C26.8502 29.9938 26.5986 29.826 26.3867 29.6143C26.1748 29.4023 26.0063 29.1499 25.8916 28.873C25.777 28.5963 25.7178 28.2996 25.7178 28C25.7178 27.7004 25.777 27.4038 25.8916 27.127C26.0063 26.8501 26.1748 26.5977 26.3867 26.3857C26.5986 26.174 26.8502 26.0062 27.127 25.8916C27.4038 25.7769 27.7004 25.7178 28 25.7178ZM31.708 23.5898C31.4876 23.5898 31.276 23.6772 31.1201 23.833C30.9643 23.9889 30.877 24.2005 30.877 24.4209C30.8771 24.6411 30.9645 24.8521 31.1201 25.0078C31.276 25.1637 31.4876 25.252 31.708 25.252C31.9283 25.2519 32.1401 25.1636 32.2959 25.0078C32.4514 24.8521 32.5389 24.641 32.5391 24.4209C32.5391 24.2007 32.4515 23.9888 32.2959 23.833C32.1401 23.6772 31.9283 23.5899 31.708 23.5898Z" fill="#D9D9D9"/>
</svg>
