<svg width="20" height="13" viewBox="0 0 20 13" fill="none" xmlns="http://www.w3.org/2000/svg">
<path d="M0.12 12V0.48H4.776C4.888 0.48 5.02667 0.485333 5.192 0.495999C5.35733 0.501333 5.51467 0.517333 5.664 0.544C6.304 0.645333 6.83733 0.863999 7.264 1.2C7.696 1.536 8.01867 1.96 8.232 2.472C8.44533 2.984 8.552 3.54933 8.552 4.168C8.552 5.08533 8.31733 5.87733 7.848 6.544C7.37867 7.20533 6.67467 7.61867 5.736 7.784L5.056 7.864H1.792V12H0.12ZM6.856 12L4.584 7.312L6.272 6.88L8.768 12H6.856ZM1.792 6.28H4.712C4.81867 6.28 4.936 6.27467 5.064 6.264C5.19733 6.25333 5.32267 6.23467 5.44 6.208C5.78133 6.128 6.056 5.98133 6.264 5.768C6.472 5.54933 6.62133 5.29867 6.712 5.016C6.80267 4.73333 6.848 4.45067 6.848 4.168C6.848 3.88533 6.80267 3.60533 6.712 3.328C6.62133 3.04533 6.472 2.79733 6.264 2.584C6.056 2.36533 5.78133 2.216 5.44 2.136C5.32267 2.104 5.19733 2.08267 5.064 2.072C4.936 2.06133 4.81867 2.056 4.712 2.056H1.792V6.28ZM15.1183 12.24C14.2169 12.24 13.4196 12.056 12.7263 11.688C12.0383 11.3147 11.4996 10.7947 11.1103 10.128C10.7209 9.456 10.5263 8.66667 10.5263 7.76V0.488L12.2223 0.48V7.672C12.2223 8.16267 12.3049 8.59467 12.4703 8.968C12.6356 9.34133 12.8569 9.65333 13.1343 9.904C13.4116 10.1547 13.7209 10.344 14.0623 10.472C14.4089 10.6 14.7609 10.664 15.1183 10.664C15.4809 10.664 15.8329 10.6 16.1743 10.472C16.5209 10.3387 16.8329 10.1467 17.1103 9.896C17.3876 9.64533 17.6063 9.33333 17.7663 8.96C17.9316 8.58667 18.0143 8.15733 18.0143 7.672V0.48H19.7103V7.76C19.7103 8.66133 19.5156 9.448 19.1263 10.12C18.7369 10.792 18.1956 11.3147 17.5023 11.688C16.8143 12.056 16.0196 12.24 15.1183 12.24Z" fill="#2C3438"/>
</svg>
