<svg width="56" height="56" viewBox="0 0 56 56" fill="none" xmlns="http://www.w3.org/2000/svg">
<rect width="56" height="56" rx="28" fill="white"/>
<path d="M35.7143 19H20.2817C19.5746 19 19 19.5826 19 20.2978V35.7022C19 36.4174 19.5746 37 20.2817 37H35.7143C36.4214 37 37 36.4174 37 35.7022V20.2978C37 19.5826 36.4214 19 35.7143 19ZM24.4402 34.4286H21.7723V25.8384H24.4442V34.4286H24.4402ZM23.1062 24.6652C22.2504 24.6652 21.5594 23.9701 21.5594 23.1183C21.5594 22.2665 22.2504 21.5714 23.1062 21.5714C23.958 21.5714 24.6531 22.2665 24.6531 23.1183C24.6531 23.9741 23.9621 24.6652 23.1062 24.6652ZM34.4406 34.4286H31.7728V30.25C31.7728 29.2536 31.7527 27.9719 30.3866 27.9719C28.9964 27.9719 28.7835 29.0567 28.7835 30.1777V34.4286H26.1156V25.8384H28.675V27.0116H28.7112C29.0687 26.3366 29.9406 25.6254 31.2384 25.6254C33.9384 25.6254 34.4406 27.4054 34.4406 29.7196V34.4286Z" fill="#D9D9D9"/>
</svg>
