<svg width="29" height="28" viewBox="0 0 29 28" fill="none" xmlns="http://www.w3.org/2000/svg">
<path fill-rule="evenodd" clip-rule="evenodd" d="M19.75 11.8125C19.75 15.9201 16.4201 19.25 12.3125 19.25C8.20488 19.25 4.875 15.9201 4.875 11.8125C4.875 7.70488 8.20488 4.375 12.3125 4.375C16.4201 4.375 19.75 7.70488 19.75 11.8125ZM18.4393 19.7954C16.7425 21.0996 14.618 21.875 12.3125 21.875C6.75513 21.875 2.25 17.3699 2.25 11.8125C2.25 6.25513 6.75513 1.75 12.3125 1.75C17.8699 1.75 22.375 6.25513 22.375 11.8125C22.375 14.118 21.5996 16.2425 20.2954 17.9393L25.9281 23.5719C26.4406 24.0845 26.4406 24.9155 25.9281 25.4281C25.4155 25.9406 24.5845 25.9406 24.0719 25.4281L18.4393 19.7954Z" fill="#919699"/>
</svg>
